<?xml version="1.0" encoding="UTF-8"?>
<!DOCTYPE svg PUBLIC "-//W3C//DTD SVG 1.1//EN" "http://www.w3.org/Graphics/SVG/1.1/DTD/svg11.dtd">
<!-- Creator: CorelDRAW X7 -->
<svg xmlns="http://www.w3.org/2000/svg" xml:space="preserve" width="917px" height="520px" version="1.1" style="shape-rendering:geometricPrecision; text-rendering:geometricPrecision; image-rendering:optimizeQuality; fill-rule:evenodd; clip-rule:evenodd"
viewBox="0 0 744 422"
 xmlns:xlink="http://www.w3.org/1999/xlink">
 <defs>
  <style type="text/css">
   <![CDATA[
    .str1 {stroke:white;stroke-width:4.05869}
    .str0 {stroke:white;stroke-width:0.730622}
    .fil2 {fill:none;fill-rule:nonzero}
    .fil0 {fill:white}
    .fil1 {fill:white;fill-rule:nonzero}
   ]]>
  </style>
 </defs>
 <g id="Camada_x0020_1">
  <metadata id="CorelCorpID_0Corel-Layer"/>
  <g id="_2766837525360">
   <path class="fil0 str0" d="M662 138c-19,-97 -175,-118 -347,-46 -32,13 -63,29 -91,46 45,-36 99,-69 159,-94 178,-74 338,-52 359,50 20,101 -107,243 -285,317 -7,3 -13,6 -20,8 145,-75 243,-194 225,-281z"/>
   <path class="fil0 str0" d="M569 198c-14,-79 -139,-102 -279,-52 -26,9 -51,20 -74,33 37,-27 81,-51 130,-69 145,-51 273,-26 288,56 14,83 -92,192 -236,243 -6,2 -11,4 -17,6 118,-54 200,-146 188,-217z"/>
   <g>
    <path class="fil0 str1" d="M120 213l40 0 8 -11 -22 0 -17 0 -51 0c-4,0 -8,0 -11,0 -4,0 -7,1 -11,1 -12,3 -21,8 -26,15l-24 54c-1,3 -1,5 1,8 4,6 15,9 34,9l53 0 37 0 7 -11 -42 0 -55 0c-5,0 -7,-1 -8,-3 0,0 0,-1 0,-1l0 -1 11 -23 75 0 6 -12 -76 0 10 -19c5,-4 11,-6 19,-6l37 0 5 0z"/>
    <path class="fil0 str1" d="M285 213c6,1 10,3 13,6l-4 10c-3,6 -8,9 -16,9l-64 0 10 -19 3 -6 16 0 37 0 5 0zm23 50c2,-6 0,-12 -7,-17 12,-5 18,-10 19,-14l6 -13 -1 -5c-2,-5 -7,-9 -13,-11 -3,0 -6,-1 -8,-1 -3,0 -6,0 -10,0l-51 0 -22 0 -17 0 -9 16 -24 54 -9 17 44 0 53 0c27,0 41,-5 44,-16l5 -10zm-34 10l-1 0c-1,3 -5,5 -12,5l-65 0 2 -4 11 -24 63 0c8,0 10,3 8,9l-6 14z"/>
    <path class="fil0 str1" d="M439 273l-1 0c-2,3 -6,5 -12,5l-55 0 -34 0 -8 11 42 0 53 0c26,0 41,-5 44,-16l3 -5 8 -20c3,-6 0,-10 -10,-10l-90 0 10 -19c5,-4 11,-6 19,-6l37 0 5 0 42 0 6 -11 -39 0 -52 0c-3,0 -7,0 -10,0 -4,0 -8,1 -11,1 -13,1 -22,6 -26,15l-10 21c-3,8 0,11 9,11l90 0 -10 23z"/>
   </g>
   <polygon class="fil1" points="24,311 23,317 15,317 10,342 4,342 9,317 0,317 1,311 "/>
   <path id="1" class="fil1" d="M65 322c0,2 -1,4 -2,5 -2,2 -3,3 -5,4l4 11 -6 0 -4 -11 -5 0 -2 11 -6 0 5 -31 12 0c3,0 5,1 7,3 2,3 3,5 2,8zm-8 3c1,-1 2,-2 2,-4 0,-1 0,-2 -1,-3 0,-1 -1,-1 -3,-1l-6 0 -1 9 6 0c1,0 2,0 3,-1z"/>
   <path id="2" class="fil1" d="M103 342l-1 -5 -13 0 -3 5 -6 0 16 -31 8 0 5 31 -6 0zm-11 -11l9 0 -2 -13 -7 13z"/>
   <polygon id="3" class="fil1" points="129,342 134,311 139,311 149,331 152,311 158,311 153,342 148,342 138,323 135,342 "/>
   <path id="4" class="fil1" d="M185 343c-3,0 -5,-1 -7,-2 -2,-2 -4,-3 -4,-6l5 -3c1,3 3,5 7,5 2,0 3,0 4,-1 1,-1 1,-1 1,-2 1,-1 0,-2 -1,-3 0,-1 -2,-1 -4,-2 -3,-1 -5,-2 -7,-4 -1,-1 -2,-3 -1,-6 0,-3 2,-5 4,-6 2,-2 4,-2 7,-2 3,0 5,0 7,1 1,2 3,3 4,6l-6 2c-1,-2 -3,-4 -5,-4 -2,0 -3,1 -3,1 -1,1 -2,2 -2,2 0,2 0,2 1,3 1,1 2,1 4,2 1,0 1,0 2,1 0,0 0,0 1,0 1,0 1,1 1,1 1,0 1,0 1,0 1,1 1,1 2,1 0,1 0,1 1,1 0,1 0,1 0,1 0,1 1,1 1,2 0,0 0,1 0,1 0,1 0,2 0,2 -1,3 -2,5 -4,7 -3,1 -5,2 -9,2z"/>
   <path id="5" class="fil1" d="M233 311c3,0 6,1 8,3 1,2 2,5 1,8 0,3 -1,5 -4,7 -2,2 -5,3 -8,3l-5 0 -2 10 -6 0 5 -31 11 0zm3 10c1,-1 0,-2 0,-3 -1,-1 -2,-1 -4,-1l-5 0 -1 9 4 0c2,0 3,0 4,-1 1,-1 2,-2 2,-4z"/>
   <path id="6" class="fil1" d="M274 343c-4,0 -8,-2 -11,-5 -2,-3 -3,-7 -2,-12 0,-4 3,-8 6,-11 4,-3 8,-4 12,-4 5,0 8,1 11,5 3,3 4,7 3,11 -1,5 -3,9 -7,11 -3,3 -7,5 -12,5zm1 -6c3,0 5,-1 8,-3 2,-2 3,-4 4,-7 0,-3 0,-6 -2,-8 -1,-2 -4,-2 -7,-2 -2,0 -5,0 -7,2 -2,2 -4,5 -4,8 -1,3 0,5 1,7 2,2 4,3 7,3z"/>
   <path id="7" class="fil1" d="M337 322c0,2 -1,4 -2,5 -2,2 -3,3 -5,4l5 11 -7 0 -4 -11 -5 0 -2 11 -6 0 5 -31 13 0c2,0 5,1 6,3 2,3 3,5 2,8zm-8 3c1,-1 2,-2 2,-4 1,-1 0,-2 0,-3 -1,-1 -2,-1 -3,-1l-6 0 -2 9 6 0c1,0 3,0 3,-1z"/>
   <polygon id="8" class="fil1" points="380,311 379,317 370,317 366,342 360,342 364,317 356,317 357,311 "/>
   <polygon id="9" class="fil1" points="418,317 405,317 404,324 415,324 414,329 403,329 401,336 414,336 413,342 394,342 400,311 419,311 "/>
   <path id="10" class="fil1" d="M445 343c-3,0 -6,-1 -8,-2 -2,-2 -3,-3 -3,-6l5 -3c1,3 3,5 7,5 1,0 3,0 3,-1 1,-1 2,-1 2,-2 0,-1 0,-2 -1,-3 -1,-1 -2,-1 -4,-2 -3,-1 -5,-2 -7,-4 -1,-1 -2,-3 -1,-6 0,-3 1,-5 4,-6 2,-2 4,-2 7,-2 2,0 5,0 6,1 2,2 4,3 4,6l-5 2c-1,-2 -3,-4 -6,-4 -1,0 -2,1 -3,1 0,1 -1,2 -1,2 0,2 0,2 1,3 1,1 2,1 4,2 1,0 1,0 1,1 1,0 1,0 2,0 0,0 1,1 1,1 0,0 1,0 1,0 1,1 1,1 1,1 1,1 1,1 1,1 1,1 1,1 1,1 0,1 0,1 0,2 0,0 1,1 1,1 0,1 -1,2 -1,2 0,3 -1,5 -4,7 -2,1 -5,2 -8,2z"/>
   <polygon id="11" class="fil2 str0" points="24,311 23,317 15,317 10,342 4,342 9,317 0,317 1,311 "/>
   <path id="12" class="fil2 str0" d="M65 322c0,2 -1,4 -2,5 -2,2 -3,3 -5,4l4 11 -6 0 -4 -11 -5 0 -2 11 -6 0 5 -31 12 0c3,0 5,1 7,3 2,3 3,5 2,8zm-8 3c1,-1 2,-2 2,-4 0,-1 0,-2 -1,-3 0,-1 -1,-1 -3,-1l-6 0 -1 9 6 0c1,0 2,0 3,-1z"/>
   <path id="13" class="fil2 str0" d="M103 342l-1 -5 -13 0 -3 5 -6 0 16 -31 8 0 5 31 -6 0zm-11 -11l9 0 -2 -13 -7 13z"/>
   <polygon id="14" class="fil2 str0" points="129,342 134,311 139,311 149,331 152,311 158,311 153,342 148,342 138,323 135,342 "/>
   <path id="15" class="fil2 str0" d="M185 343c-3,0 -5,-1 -7,-2 -2,-2 -4,-3 -4,-6l5 -3c1,3 3,5 7,5 2,0 3,0 4,-1 1,-1 1,-1 1,-2 1,-1 0,-2 -1,-3 0,-1 -2,-1 -4,-2 -3,-1 -5,-2 -7,-4 -1,-1 -2,-3 -1,-6 0,-3 2,-5 4,-6 2,-2 4,-2 7,-2 3,0 5,0 7,1 1,2 3,3 4,6l-6 2c-1,-2 -3,-4 -5,-4 -2,0 -3,1 -3,1 -1,1 -2,2 -2,2 0,2 0,2 1,3 1,1 2,1 4,2 1,0 1,0 2,1 0,0 0,0 1,0 1,0 1,1 1,1 1,0 1,0 1,0 1,1 1,1 2,1 0,1 0,1 1,1 0,1 0,1 0,1 0,1 1,1 1,2 0,0 0,1 0,1 0,1 0,2 0,2 -1,3 -2,5 -4,7 -3,1 -5,2 -9,2z"/>
   <path id="16" class="fil2 str0" d="M233 311c3,0 6,1 8,3 1,2 2,5 1,8 0,3 -1,5 -4,7 -2,2 -5,3 -8,3l-5 0 -2 10 -6 0 5 -31 11 0zm3 10c1,-1 0,-2 0,-3 -1,-1 -2,-1 -4,-1l-5 0 -1 9 4 0c2,0 3,0 4,-1 1,-1 2,-2 2,-4z"/>
   <path id="17" class="fil2 str0" d="M274 343c-4,0 -8,-2 -11,-5 -2,-3 -3,-7 -2,-12 0,-4 3,-8 6,-11 4,-3 8,-4 12,-4 5,0 8,1 11,5 3,3 4,7 3,11 -1,5 -3,9 -7,11 -3,3 -7,5 -12,5zm1 -6c3,0 5,-1 8,-3 2,-2 3,-4 4,-7 0,-3 0,-6 -2,-8 -1,-2 -4,-2 -7,-2 -2,0 -5,0 -7,2 -2,2 -4,5 -4,8 -1,3 0,5 1,7 2,2 4,3 7,3z"/>
   <path id="18" class="fil2 str0" d="M337 322c0,2 -1,4 -2,5 -2,2 -3,3 -5,4l5 11 -7 0 -4 -11 -5 0 -2 11 -6 0 5 -31 13 0c2,0 5,1 6,3 2,3 3,5 2,8zm-8 3c1,-1 2,-2 2,-4 1,-1 0,-2 0,-3 -1,-1 -2,-1 -3,-1l-6 0 -2 9 6 0c1,0 3,0 3,-1z"/>
   <polygon id="19" class="fil2 str0" points="380,311 379,317 370,317 366,342 360,342 364,317 356,317 357,311 "/>
   <polygon id="20" class="fil2 str0" points="418,317 405,317 404,324 415,324 414,329 403,329 401,336 414,336 413,342 394,342 400,311 419,311 "/>
   <path id="21" class="fil2 str0" d="M445 343c-3,0 -6,-1 -8,-2 -2,-2 -3,-3 -3,-6l5 -3c1,3 3,5 7,5 1,0 3,0 3,-1 1,-1 2,-1 2,-2 0,-1 0,-2 -1,-3 -1,-1 -2,-1 -4,-2 -3,-1 -5,-2 -7,-4 -1,-1 -2,-3 -1,-6 0,-3 1,-5 4,-6 2,-2 4,-2 7,-2 2,0 5,0 6,1 2,2 4,3 4,6l-5 2c-1,-2 -3,-4 -6,-4 -1,0 -2,1 -3,1 0,1 -1,2 -1,2 0,2 0,2 1,3 1,1 2,1 4,2 1,0 1,0 1,1 1,0 1,0 2,0 0,0 1,1 1,1 0,0 1,0 1,0 1,1 1,1 1,1 1,1 1,1 1,1 1,1 1,1 1,1 0,1 0,1 0,2 0,0 1,1 1,1 0,1 -1,2 -1,2 0,3 -1,5 -4,7 -2,1 -5,2 -8,2z"/>
  </g>
 </g>
</svg>
