<?xml version="1.0" encoding="UTF-8"?>
<!DOCTYPE svg PUBLIC "-//W3C//DTD SVG 1.1//EN" "http://www.w3.org/Graphics/SVG/1.1/DTD/svg11.dtd">
<!-- Creator: CorelDRAW X7 -->
<svg xmlns="http://www.w3.org/2000/svg" xml:space="preserve" width="348px" height="196px" version="1.1" style="shape-rendering:geometricPrecision; text-rendering:geometricPrecision; image-rendering:optimizeQuality; fill-rule:evenodd; clip-rule:evenodd"
viewBox="0 0 697 393"
 xmlns:xlink="http://www.w3.org/1999/xlink">
 <defs>
  <style type="text/css">
   <![CDATA[
    .str0 {stroke:#042373;stroke-width:6.00669}
    .fil1 {fill:#042373}
    .fil2 {fill:#042373}
    .fil0 {fill:#FFC300}
   ]]>
  </style>
 </defs>
 <g id="Camada_x0020_1">
  <metadata id="CorelCorpID_0Corel-Layer"/>
  <g id="_2797624958576">
   <path class="fil0" d="M620 129c-18,-91 -164,-111 -325,-43 -30,12 -59,27 -85,43 42,-34 93,-65 149,-88 166,-69 317,-49 336,47 19,95 -101,228 -267,297 -6,3 -13,5 -19,8 136,-71 228,-183 211,-264z"/>
   <path class="fil1" d="M533 185c-13,-74 -130,-96 -261,-49 -25,9 -48,19 -70,31 35,-25 76,-48 122,-64 136,-48 256,-25 270,52 13,78 -86,180 -222,228 -5,2 -10,4 -15,5 111,-50 187,-136 176,-203z"/>
   <g>
    <path class="fil1 str0" d="M112 200l38 0 7 -11 -20 0 -16 0 -49 0c-3,0 -7,0 -10,0 -3,0 -7,1 -10,1 -11,2 -19,7 -24,14l-23 51c-1,2 0,4 1,7 4,6 14,9 32,9l50 0 34 0 7 -11 -39 0 -52 0c-4,0 -7,-1 -7,-2 0,-1 0,-1 0,-2l0 0 10 -22 70 0 5 -11 -70 0 9 -18c4,-4 10,-6 18,-5l34 0 5 0z"/>
    <path class="fil1 str0" d="M266 200c6,0 10,2 13,5l-4 9c-2,6 -8,9 -15,9l-60 0 10 -18 2 -5 16 0 34 0 4 0zm22 46c2,-6 0,-11 -6,-16 11,-5 16,-9 18,-13l5 -12 -1 -4c-2,-6 -6,-9 -12,-11 -3,0 -5,-1 -8,-1 -3,0 -5,0 -9,0l-48 0 -20 0 -17 0 -8 15 -22 51 -9 16 42 0 49 0c25,0 39,-5 42,-15l4 -10zm-32 9l0 1c-2,3 -6,4 -12,4l-60 0 1 -4 11 -22 59 0c7,0 9,3 7,8l-6 13z"/>
    <path class="fil1 str0" d="M411 255l-1 1c-1,3 -5,4 -11,4l-52 0 -32 0 -7 11 40 0 49 0c25,0 39,-5 41,-15l3 -5 8 -18c3,-7 -1,-10 -10,-10l-84 0 9 -18c5,-4 11,-6 18,-5l35 0 4 0 39 0 6 -11 -36 0 -48 0c-4,0 -7,0 -11,0 -3,0 -6,1 -10,1 -12,1 -20,6 -24,14l-9 20c-3,7 -1,10 8,10l84 0 -9 21z"/>
   </g>
   <path class="fil2" d="M22 291l-1 6 -8 0 -4 23 -5 0 4 -23 -8 0 1 -6 21 0zm39 10c-1,2 -2,4 -3,6 -1,1 -3,2 -4,3l4 10 -6 0 -4 -10 -5 0 -1 10 -6 0 5 -29 11 0c3,0 5,1 7,3 1,2 2,5 2,7zm-8 3c1,-1 2,-2 2,-3 0,-1 0,-2 -1,-3 0,-1 -1,-1 -3,-1l-5 0 -2 8 6 0c1,0 2,0 3,-1zm43 16l-1 -5 -12 0 -3 5 -6 0 15 -29 8 0 5 29 -6 0zm-10 -10l8 0 -2 -12 -6 12zm34 10l5 -29 5 0 9 19 3 -19 6 0 -5 29 -5 0 -9 -18 -3 18 -6 0zm53 1c-3,0 -5,-1 -7,-2 -2,-1 -3,-3 -3,-5l5 -3c1,3 3,5 6,5 1,0 3,-1 3,-1 1,-1 2,-2 2,-3 0,-1 0,-1 -1,-2 -1,-1 -2,-1 -4,-2 -3,-1 -5,-2 -6,-3 -2,-2 -2,-4 -2,-6 1,-3 2,-5 4,-6 2,-2 4,-2 7,-2 2,0 4,0 6,2 2,1 3,2 4,4l-5 3c-1,-2 -3,-4 -6,-4 -1,0 -2,1 -2,1 -1,1 -2,1 -2,2 0,1 0,2 1,3 1,0 2,1 4,1 1,1 1,1 1,1 1,0 1,0 2,0 0,1 0,1 1,1 0,0 0,0 1,1 0,0 1,0 1,0 0,1 0,1 1,1 0,1 0,1 0,1 1,1 1,1 1,2 0,0 0,1 0,1 0,1 0,1 0,2 -1,3 -2,5 -4,6 -2,1 -5,2 -8,2zm45 -30c3,0 5,1 7,3 2,2 2,5 2,7 -1,3 -2,6 -4,7 -2,2 -5,3 -8,3l-5 0 -2 9 -5 0 5 -29 10 0zm3 10c0,-1 0,-2 0,-3 -1,-1 -2,-1 -4,-1l-4 0 -2 9 5 0c1,0 2,-1 3,-2 1,-1 2,-2 2,-3zm35 20c-4,0 -7,-2 -10,-5 -2,-3 -3,-6 -2,-10 1,-5 3,-8 6,-11 3,-3 7,-4 11,-4 5,0 8,1 10,4 3,4 4,7 3,11 -1,5 -3,8 -6,11 -3,3 -7,4 -12,4zm1 -6c3,0 5,0 7,-2 3,-2 4,-4 4,-7 1,-3 0,-5 -1,-7 -2,-2 -4,-3 -6,-3 -3,0 -5,1 -8,3 -2,2 -3,4 -3,7 -1,3 0,5 1,7 1,2 4,2 6,2zm59 -14c-1,2 -1,4 -3,6 -1,1 -2,2 -4,3l4 10 -6 0 -4 -10 -4 0 -2 10 -6 0 5 -29 12 0c2,0 4,1 6,3 2,2 2,5 2,7zm-8 3c1,-1 2,-2 2,-3 0,-1 0,-2 -1,-3 0,-1 -1,-1 -2,-1l-6 0 -2 8 6 0c2,0 3,0 3,-1zm47 -13l-1 6 -7 0 -5 23 -5 0 4 -23 -8 0 1 -6 21 0zm36 6l-12 0 -1 6 11 0 -1 5 -11 0 -1 7 12 0 -1 5 -18 0 5 -29 18 0 -1 6zm26 24c-3,0 -5,-1 -7,-2 -2,-1 -3,-3 -4,-5l5 -3c1,3 3,5 6,5 2,0 3,-1 4,-1 1,-1 1,-2 1,-3 1,-1 0,-1 0,-2 -1,-1 -3,-1 -5,-2 -2,-1 -4,-2 -6,-3 -1,-2 -2,-4 -1,-6 0,-3 2,-5 4,-6 2,-2 4,-2 6,-2 3,0 5,0 6,2 2,1 3,2 4,4l-5 3c-1,-2 -3,-4 -5,-4 -1,0 -2,1 -3,1 -1,1 -1,1 -1,2 -1,1 0,2 0,3 1,0 3,1 5,1 0,1 0,1 1,1 0,0 1,0 1,0 1,1 1,1 1,1 1,0 1,0 1,1 1,0 1,0 1,0 1,1 1,1 1,1 1,1 1,1 1,1 0,1 0,1 0,2 0,0 0,1 0,1 0,1 0,1 0,2 0,3 -1,5 -3,6 -3,1 -5,2 -8,2z"/>
  </g>
 </g>
</svg>
